<svg xmlns="http://www.w3.org/2000/svg" viewBox="0 0 200.0 149.4" fill="none" role="img" aria-label="Nordic Engros"><path fill="#E0B52B" fill-rule="evenodd" d="M0.00,144.55L1.13,144.27L24.19,131.68L25.60,131.26L31.82,140.03L31.82,140.74L21.50,149.36L22.21,149.22L92.64,106.51L96.75,108.49L97.45,109.48L84.58,133.24L110.61,115.98L111.32,115.84L161.53,140.88L146.39,128.29L146.82,127.58L155.87,121.92L156.44,121.92L199.01,147.52L155.02,109.34L138.76,119.66L137.06,120.37L96.46,85.86L93.64,87.84L38.90,134.65L38.05,134.37L26.73,120.37ZM21.36,79.07L19.52,88.83L18.95,96.75L19.24,106.22L20.51,114.71L21.22,114.71L26.87,109.34L27.86,108.91L39.60,123.34L40.17,123.20L95.90,75.53L96.46,75.53L137.91,110.61L154.74,99.86L155.73,99.58L179.63,120.23L180.62,117.54L182.04,109.62L182.60,101.56L182.32,90.81L180.20,78.93L177.51,70.44L174.26,62.80L170.72,56.44L167.04,50.92L161.39,43.99L156.44,39.04L150.21,33.80L142.43,28.57L135.50,24.89L127.86,21.78L119.80,19.38L111.88,17.96L103.39,17.26L93.49,17.54L87.84,18.25L79.21,20.08L71.85,22.49L66.20,24.89L58.70,28.85L50.07,34.79L44.84,39.32L38.76,45.69L34.79,50.64L30.98,56.29L27.30,62.94L23.34,72.42ZM7.92,64.36L5.52,71.57L3.39,80.34L2.26,88.12L1.70,96.61L1.84,104.67L2.69,113.30L4.38,122.21L6.08,128.15L13.44,121.64L12.02,115.28L11.03,108.35L10.61,97.03L11.03,89.96L12.02,82.89L15.56,69.45L19.09,60.82L24.89,50.35L31.68,41.16L39.60,32.81L49.08,25.18L58.56,19.38L65.35,16.12L71.99,13.58L83.88,10.47L94.91,9.05L106.51,9.05L119.24,10.75L131.68,14.29L140.59,18.10L146.11,21.07L151.91,24.75L158.42,29.70L161.95,32.81L169.45,40.59L175.81,48.94L179.63,55.16L183.17,62.23L186.99,72.28L189.11,80.34L190.52,89.53L190.95,94.91L190.52,108.77L189.11,117.82L186.85,126.45L193.92,132.67L194.63,131.40L197.45,121.50L199.15,111.88L199.86,103.82L199.86,94.34L199.15,86.14L197.45,76.66L194.63,66.76L190.10,55.87L184.72,46.25L179.21,38.33L173.55,31.68L166.90,25.18L157.85,17.96L151.06,13.58L142.72,9.19L134.09,5.66L126.45,3.25L116.27,1.13L108.91,0.28L98.16,0.00L90.95,0.42L80.06,2.12L69.59,4.95L59.83,8.77L50.35,13.72L42.01,19.24L36.49,23.62L29.00,30.69L23.34,37.20L17.54,45.26L13.58,51.91Z"/><path fill="#FFFFFF" fill-rule="evenodd" d="M0.00,144.55L1.13,144.27L24.19,131.68L25.60,131.26L31.82,140.03L31.82,140.74L21.50,149.36L22.21,149.22L92.64,106.51L96.75,108.49L97.45,109.48L84.58,133.24L110.61,115.98L111.32,115.84L161.53,140.88L146.39,128.29L146.82,127.58L155.87,121.92L156.44,121.92L199.01,147.52L155.02,109.34L138.76,119.66L137.06,120.37L96.46,85.86L93.64,87.84L38.90,134.65L38.05,134.37L26.73,120.37ZM7.92,64.36L5.52,71.57L3.39,80.34L2.26,88.12L1.70,96.61L1.84,104.67L2.69,113.30L4.38,122.21L6.08,128.15L13.44,121.64L12.02,115.28L11.03,108.35L10.61,97.03L11.03,89.96L12.02,82.89L15.56,69.45L19.09,60.82L24.89,50.35L31.68,41.16L39.60,32.81L49.08,25.18L58.56,19.38L65.35,16.12L71.99,13.58L83.88,10.47L94.91,9.05L106.51,9.05L119.24,10.75L131.68,14.29L140.59,18.10L146.11,21.07L151.91,24.75L158.42,29.70L161.95,32.81L169.45,40.59L175.81,48.94L179.63,55.16L183.17,62.23L186.99,72.28L189.11,80.34L190.52,89.53L190.95,94.91L190.52,108.77L189.11,117.82L186.85,126.45L193.92,132.67L194.63,131.40L197.45,121.50L199.15,111.88L199.86,103.82L199.86,94.34L199.15,86.14L197.45,76.66L194.63,66.76L190.10,55.87L184.72,46.25L179.21,38.33L173.55,31.68L166.90,25.18L157.85,17.96L151.06,13.58L142.72,9.19L134.09,5.66L126.45,3.25L116.27,1.13L108.91,0.28L98.16,0.00L90.95,0.42L80.06,2.12L69.59,4.95L59.83,8.77L50.35,13.72L42.01,19.24L36.49,23.62L29.00,30.69L23.34,37.20L17.54,45.26L13.58,51.91Z"/></svg>