<svg xmlns="http://www.w3.org/2000/svg" viewBox="0 0 300.0 255.4" fill="none" role="img" aria-label="Nordic Engros"><path fill="#E0B52B" fill-rule="evenodd" d="M148.21,235.72L148.06,254.95L152.08,255.09L152.22,249.07L152.51,248.78L155.52,248.78L159.83,254.95L164.56,255.09L160.11,248.35L163.13,245.91L163.99,244.33L164.13,240.60L162.98,238.02L161.69,236.87L159.25,235.87ZM152.22,239.74L152.51,239.45L157.25,239.45L158.97,240.03L159.97,241.46L159.68,243.76L158.68,244.76L157.39,245.19L152.51,245.19L152.22,244.76ZM74.89,235.72L74.75,254.95L78.62,255.09L78.91,254.81L78.91,243.33L79.34,243.04L88.38,254.95L91.82,255.09L91.97,235.87L87.95,235.72L87.95,247.06L87.52,247.35L78.77,235.87ZM41.46,235.72L41.46,255.09L55.95,255.09L55.95,251.36L45.91,251.51L45.48,251.08L45.48,247.49L45.77,247.20L54.38,247.20L54.66,246.92L54.52,243.47L45.77,243.47L45.48,243.19L45.48,239.60L45.77,239.31L55.81,239.31L55.95,235.87ZM225.39,235.58L222.67,236.87L221.23,238.59L220.66,241.18L220.95,243.33L222.81,245.62L230.27,248.21L231.13,249.93L229.84,251.51L227.12,251.65L225.39,251.22L222.24,249.50L220.09,252.51L221.95,253.80L224.68,254.95L227.83,255.38L231.13,254.95L232.86,254.09L234.29,252.65L235.15,250.36L235.01,247.49L234.29,246.20L232.57,244.76L225.68,242.47L224.68,240.75L225.82,239.31L227.98,239.02L230.42,239.74L232.42,240.89L234.43,237.73L232.14,236.30L229.70,235.58ZM187.80,236.30L184.22,239.17L182.64,241.89L182.07,246.20L183.50,250.65L186.37,253.66L190.10,255.24L194.55,255.24L197.70,254.09L200.43,251.79L202.44,247.92L202.58,243.47L201.43,240.32L199.43,237.88L195.98,235.87L194.12,235.44L190.67,235.44ZM190.82,239.31L193.11,239.17L195.55,240.03L197.42,241.89L198.28,244.05L198.28,246.63L197.56,248.64L196.27,250.22L193.83,251.51L191.10,251.51L189.38,250.79L187.52,249.07L186.51,246.63L186.51,243.90L187.23,242.04L188.81,240.32ZM117.36,235.87L114.20,237.59L112.48,239.45L111.33,241.46L110.76,243.47L110.62,246.20L111.48,249.78L113.92,253.08L117.36,254.95L122.24,255.38L125.97,254.38L129.12,252.22L129.12,244.05L120.80,244.05L120.80,247.49L124.68,247.49L125.11,247.92L124.96,250.50L121.81,251.65L119.37,251.51L117.36,250.50L115.49,248.06L114.92,244.91L115.64,242.32L117.93,239.89L119.23,239.31L121.52,239.17L123.39,239.60L125.82,241.03L128.26,237.88L126.97,236.87L123.82,235.58L119.08,235.44ZM231.56,166.43L231.42,215.35L241.89,215.64L242.18,215.35L242.04,166.43ZM173.74,166.43L173.60,215.49L195.12,215.49L198.42,215.06L205.02,212.91L210.62,209.33L214.63,204.88L216.79,201.00L218.22,196.70L218.79,192.68L218.65,187.66L217.79,183.50L216.07,179.34L212.77,174.61L209.61,171.74L207.03,170.01L202.30,167.86L199.71,167.14L194.40,166.43ZM184.36,176.18L194.69,176.18L197.13,176.61L202.15,179.05L205.45,182.78L207.32,187.37L207.60,189.24L207.32,194.69L206.17,197.99L204.45,200.72L200.29,204.16L197.85,205.16L193.83,205.88L184.65,205.88L184.22,205.45ZM120.37,166.43L120.37,215.49L130.85,215.49L130.99,200.00L131.28,199.71L139.31,199.71L150.22,215.49L162.27,215.64L162.27,214.92L150.79,198.42L151.08,197.70L154.38,196.13L157.39,193.54L159.40,190.82L160.83,186.94L161.12,185.22L160.83,178.48L159.40,174.61L157.39,171.74L153.23,168.58L147.20,166.71ZM130.99,176.33L131.42,176.04L143.62,176.18L147.35,177.33L149.50,179.34L150.22,181.21L150.36,184.51L149.50,186.94L147.63,188.95L144.33,190.24L131.28,190.39L130.85,188.95ZM0.29,166.43L0.00,166.71L0.00,215.35L10.47,215.49L10.62,215.21L10.47,185.08L10.90,184.51L34.58,215.49L43.62,215.49L43.62,166.57L33.14,166.57L33.14,196.13L32.71,196.27L10.04,166.57ZM277.04,165.71L272.31,166.71L267.14,169.01L263.70,171.45L260.26,175.04L257.96,178.48L255.81,183.79L254.95,188.52L255.09,194.98L256.10,199.28L258.68,204.88L261.55,208.61L264.99,211.62L269.15,214.06L274.18,215.78L278.34,216.36L285.22,216.07L287.95,215.49L292.97,213.49L298.13,209.76L299.86,208.03L299.86,207.32L293.54,201.00L287.37,205.16L283.79,206.31L281.06,206.60L277.47,206.31L273.17,204.59L269.58,201.43L267.00,196.84L266.00,192.11L266.00,189.67L266.71,185.94L267.72,183.36L269.58,180.49L271.74,178.34L275.18,176.33L278.62,175.47L283.50,175.61L288.09,177.33L292.97,180.92L299.57,173.46L299.57,172.88L294.40,168.87L289.81,166.86L284.36,165.71ZM78.34,165.71L73.74,166.71L68.72,168.87L64.56,171.74L60.40,176.33L57.53,181.64L56.24,186.08L55.81,190.24L56.24,195.98L57.39,200.14L59.40,204.30L62.55,208.46L66.28,211.62L71.88,214.63L75.61,215.78L80.20,216.36L86.37,216.07L91.82,214.63L96.13,212.48L99.28,210.19L103.44,205.60L106.03,201.00L107.32,197.27L108.03,192.68L107.75,186.66L106.31,181.35L104.16,177.19L102.15,174.46L97.13,170.01L93.26,167.86L88.09,166.14L83.36,165.57ZM78.91,175.61L84.65,175.61L89.53,177.47L91.68,179.05L94.12,181.78L95.70,184.65L96.56,187.37L96.70,193.83L95.70,197.42L94.69,199.43L92.97,201.72L90.67,203.87L88.52,205.16L85.08,206.31L82.78,206.60L78.91,206.31L75.61,205.16L73.03,203.59L70.73,201.43L69.01,199.00L67.14,193.69L67.14,188.24L67.86,185.37L69.73,181.64L72.31,178.77L74.32,177.33ZM45.34,146.63L46.48,146.34L69.87,133.57L71.31,133.14L77.62,142.04L77.62,142.75L67.14,151.51L67.86,151.36L139.31,108.03L143.47,110.04L144.19,111.05L131.13,135.15L157.53,117.65L158.25,117.50L209.18,142.90L193.83,130.13L194.26,129.41L203.44,123.67L204.02,123.67L247.20,149.64L202.58,110.90L186.08,121.38L184.36,122.09L143.19,87.09L140.32,89.10L84.79,136.59L83.93,136.30L72.45,122.09ZM67.00,80.20L65.14,90.10L64.56,98.13L64.85,107.75L66.14,116.36L66.86,116.36L72.60,110.90L73.60,110.47L85.51,125.11L86.08,124.96L142.61,76.61L143.19,76.61L185.22,112.20L202.30,101.29L203.30,101.00L227.55,121.95L228.55,119.23L229.99,111.19L230.56,103.01L230.27,92.11L228.12,80.06L225.39,71.45L222.09,63.70L218.51,57.25L214.78,51.65L209.04,44.62L204.02,39.60L197.70,34.29L189.81,28.98L182.78,25.25L175.04,22.09L166.86,19.66L158.82,18.22L150.22,17.50L140.17,17.79L134.43,18.51L125.68,20.37L118.22,22.81L112.48,25.25L104.88,29.27L96.13,35.29L90.82,39.89L84.65,46.34L80.63,51.36L76.76,57.10L73.03,63.85L69.01,73.46ZM53.37,65.28L50.93,72.60L48.78,81.49L47.63,89.38L47.06,97.99L47.20,106.17L48.06,114.92L49.78,123.96L51.51,129.99L58.97,123.39L57.53,116.93L56.53,109.90L56.10,98.42L56.53,91.25L57.53,84.07L61.12,70.44L64.71,61.69L70.59,51.08L77.47,41.75L85.51,33.29L95.12,25.54L104.73,19.66L111.62,16.36L118.36,13.77L130.42,10.62L141.61,9.18L153.37,9.18L166.28,10.90L178.91,14.49L187.95,18.36L193.54,21.38L199.43,25.11L206.03,30.13L209.61,33.29L217.22,41.18L223.67,49.64L227.55,55.95L231.13,63.13L235.01,73.31L237.16,81.49L238.59,90.82L239.02,96.27L238.59,110.33L237.16,119.51L234.86,128.26L242.04,134.58L242.75,133.29L245.62,123.24L247.35,113.49L248.06,105.31L248.06,95.70L247.35,87.37L245.62,77.76L242.75,67.72L238.16,56.67L232.71,46.92L227.12,38.88L221.38,32.14L214.63,25.54L205.45,18.22L198.57,13.77L190.10,9.33L181.35,5.74L173.60,3.30L163.27,1.15L155.81,0.29L144.91,0.00L137.59,0.43L126.54,2.15L115.93,5.02L106.03,8.90L96.41,13.92L87.95,19.51L82.35,23.96L74.75,31.13L69.01,37.73L63.13,45.91L59.11,52.65Z"/><path fill="#FFFFFF" fill-rule="evenodd" d="M148.21,235.72L148.06,254.95L152.08,255.09L152.22,249.07L152.51,248.78L155.52,248.78L159.83,254.95L164.56,255.09L160.11,248.35L163.13,245.91L163.99,244.33L164.13,240.60L162.98,238.02L161.69,236.87L159.25,235.87ZM152.22,239.74L152.51,239.45L157.25,239.45L158.97,240.03L159.97,241.46L159.68,243.76L158.68,244.76L157.39,245.19L152.51,245.19L152.22,244.76ZM74.89,235.72L74.75,254.95L78.62,255.09L78.91,254.81L78.91,243.33L79.34,243.04L88.38,254.95L91.82,255.09L91.97,235.87L87.95,235.72L87.95,247.06L87.52,247.35L78.77,235.87ZM41.46,235.72L41.46,255.09L55.95,255.09L55.95,251.36L45.91,251.51L45.48,251.08L45.48,247.49L45.77,247.20L54.38,247.20L54.66,246.92L54.52,243.47L45.77,243.47L45.48,243.19L45.48,239.60L45.77,239.31L55.81,239.31L55.95,235.87ZM225.39,235.58L222.67,236.87L221.23,238.59L220.66,241.18L220.95,243.33L222.81,245.62L230.27,248.21L231.13,249.93L229.84,251.51L227.12,251.65L225.39,251.22L222.24,249.50L220.09,252.51L221.95,253.80L224.68,254.95L227.83,255.38L231.13,254.95L232.86,254.09L234.29,252.65L235.15,250.36L235.01,247.49L234.29,246.20L232.57,244.76L225.68,242.47L224.68,240.75L225.82,239.31L227.98,239.02L230.42,239.74L232.42,240.89L234.43,237.73L232.14,236.30L229.70,235.58ZM187.80,236.30L184.22,239.17L182.64,241.89L182.07,246.20L183.50,250.65L186.37,253.66L190.10,255.24L194.55,255.24L197.70,254.09L200.43,251.79L202.44,247.92L202.58,243.47L201.43,240.32L199.43,237.88L195.98,235.87L194.12,235.44L190.67,235.44ZM190.82,239.31L193.11,239.17L195.55,240.03L197.42,241.89L198.28,244.05L198.28,246.63L197.56,248.64L196.27,250.22L193.83,251.51L191.10,251.51L189.38,250.79L187.52,249.07L186.51,246.63L186.51,243.90L187.23,242.04L188.81,240.32ZM117.36,235.87L114.20,237.59L112.48,239.45L111.33,241.46L110.76,243.47L110.62,246.20L111.48,249.78L113.92,253.08L117.36,254.95L122.24,255.38L125.97,254.38L129.12,252.22L129.12,244.05L120.80,244.05L120.80,247.49L124.68,247.49L125.11,247.92L124.96,250.50L121.81,251.65L119.37,251.51L117.36,250.50L115.49,248.06L114.92,244.91L115.64,242.32L117.93,239.89L119.23,239.31L121.52,239.17L123.39,239.60L125.82,241.03L128.26,237.88L126.97,236.87L123.82,235.58L119.08,235.44ZM231.56,166.43L231.42,215.35L241.89,215.64L242.18,215.35L242.04,166.43ZM173.74,166.43L173.60,215.49L195.12,215.49L198.42,215.06L205.02,212.91L210.62,209.33L214.63,204.88L216.79,201.00L218.22,196.70L218.79,192.68L218.65,187.66L217.79,183.50L216.07,179.34L212.77,174.61L209.61,171.74L207.03,170.01L202.30,167.86L199.71,167.14L194.40,166.43ZM184.36,176.18L194.69,176.18L197.13,176.61L202.15,179.05L205.45,182.78L207.32,187.37L207.60,189.24L207.32,194.69L206.17,197.99L204.45,200.72L200.29,204.16L197.85,205.16L193.83,205.88L184.65,205.88L184.22,205.45ZM120.37,166.43L120.37,215.49L130.85,215.49L130.99,200.00L131.28,199.71L139.31,199.71L150.22,215.49L162.27,215.64L162.27,214.92L150.79,198.42L151.08,197.70L154.38,196.13L157.39,193.54L159.40,190.82L160.83,186.94L161.12,185.22L160.83,178.48L159.40,174.61L157.39,171.74L153.23,168.58L147.20,166.71ZM130.99,176.33L131.42,176.04L143.62,176.18L147.35,177.33L149.50,179.34L150.22,181.21L150.36,184.51L149.50,186.94L147.63,188.95L144.33,190.24L131.28,190.39L130.85,188.95ZM0.29,166.43L0.00,166.71L0.00,215.35L10.47,215.49L10.62,215.21L10.47,185.08L10.90,184.51L34.58,215.49L43.62,215.49L43.62,166.57L33.14,166.57L33.14,196.13L32.71,196.27L10.04,166.57ZM277.04,165.71L272.31,166.71L267.14,169.01L263.70,171.45L260.26,175.04L257.96,178.48L255.81,183.79L254.95,188.52L255.09,194.98L256.10,199.28L258.68,204.88L261.55,208.61L264.99,211.62L269.15,214.06L274.18,215.78L278.34,216.36L285.22,216.07L287.95,215.49L292.97,213.49L298.13,209.76L299.86,208.03L299.86,207.32L293.54,201.00L287.37,205.16L283.79,206.31L281.06,206.60L277.47,206.31L273.17,204.59L269.58,201.43L267.00,196.84L266.00,192.11L266.00,189.67L266.71,185.94L267.72,183.36L269.58,180.49L271.74,178.34L275.18,176.33L278.62,175.47L283.50,175.61L288.09,177.33L292.97,180.92L299.57,173.46L299.57,172.88L294.40,168.87L289.81,166.86L284.36,165.71ZM78.34,165.71L73.74,166.71L68.72,168.87L64.56,171.74L60.40,176.33L57.53,181.64L56.24,186.08L55.81,190.24L56.24,195.98L57.39,200.14L59.40,204.30L62.55,208.46L66.28,211.62L71.88,214.63L75.61,215.78L80.20,216.36L86.37,216.07L91.82,214.63L96.13,212.48L99.28,210.19L103.44,205.60L106.03,201.00L107.32,197.27L108.03,192.68L107.75,186.66L106.31,181.35L104.16,177.19L102.15,174.46L97.13,170.01L93.26,167.86L88.09,166.14L83.36,165.57ZM78.91,175.61L84.65,175.61L89.53,177.47L91.68,179.05L94.12,181.78L95.70,184.65L96.56,187.37L96.70,193.83L95.70,197.42L94.69,199.43L92.97,201.72L90.67,203.87L88.52,205.16L85.08,206.31L82.78,206.60L78.91,206.31L75.61,205.16L73.03,203.59L70.73,201.43L69.01,199.00L67.14,193.69L67.14,188.24L67.86,185.37L69.73,181.64L72.31,178.77L74.32,177.33ZM45.34,146.63L46.48,146.34L69.87,133.57L71.31,133.14L77.62,142.04L77.62,142.75L67.14,151.51L67.86,151.36L139.31,108.03L143.47,110.04L144.19,111.05L131.13,135.15L157.53,117.65L158.25,117.50L209.18,142.90L193.83,130.13L194.26,129.41L203.44,123.67L204.02,123.67L247.20,149.64L202.58,110.90L186.08,121.38L184.36,122.09L143.19,87.09L140.32,89.10L84.79,136.59L83.93,136.30L72.45,122.09ZM53.37,65.28L50.93,72.60L48.78,81.49L47.63,89.38L47.06,97.99L47.20,106.17L48.06,114.92L49.78,123.96L51.51,129.99L58.97,123.39L57.53,116.93L56.53,109.90L56.10,98.42L56.53,91.25L57.53,84.07L61.12,70.44L64.71,61.69L70.59,51.08L77.47,41.75L85.51,33.29L95.12,25.54L104.73,19.66L111.62,16.36L118.36,13.77L130.42,10.62L141.61,9.18L153.37,9.18L166.28,10.90L178.91,14.49L187.95,18.36L193.54,21.38L199.43,25.11L206.03,30.13L209.61,33.29L217.22,41.18L223.67,49.64L227.55,55.95L231.13,63.13L235.01,73.31L237.16,81.49L238.59,90.82L239.02,96.27L238.59,110.33L237.16,119.51L234.86,128.26L242.04,134.58L242.75,133.29L245.62,123.24L247.35,113.49L248.06,105.31L248.06,95.70L247.35,87.37L245.62,77.76L242.75,67.72L238.16,56.67L232.71,46.92L227.12,38.88L221.38,32.14L214.63,25.54L205.45,18.22L198.57,13.77L190.10,9.33L181.35,5.74L173.60,3.30L163.27,1.15L155.81,0.29L144.91,0.00L137.59,0.43L126.54,2.15L115.93,5.02L106.03,8.90L96.41,13.92L87.95,19.51L82.35,23.96L74.75,31.13L69.01,37.73L63.13,45.91L59.11,52.65Z"/></svg>